<svg xmlns="http://www.w3.org/2000/svg" viewBox="0 0 10 10">
  <g class="marker">
    <path class="point" d="M8 5a3 3 0 1 1-6 0 3 3 0 0 1 6 0Z"/>
    <path class="new" fill-rule="evenodd" d="M5 10A5 5 0 1 0 5 0a5 5 0 0 0 0 10Zm0-1a4 4 0 1 0 0-8 4 4 0 0 0 0 8Z"/>
    <path class="in" d="M8.54 8.54a4.98 4.98 0 0 1-7.08 0l.71-.71a3.99 3.99 0 0 0 5.66 0l.7.7Z"/>
    <path class="out" d="M2.17 2.17a3.99 3.99 0 0 1 5.66 0l.7-.7a4.98 4.98 0 0 0-7.07 0l.71.7Z"/>
    <text rotate="" fill="#fff" x="50%" y="50%" font-size="3" text-anchor="middle" dominant-baseline="middle">999</text>
  </g>
</svg>
